<?xml version="1.0" standalone="no"?>
<!DOCTYPE svg PUBLIC "-//W3C//DTD SVG 20010904//EN"
 "http://www.w3.org/TR/2001/REC-SVG-20010904/DTD/svg10.dtd">
<svg version="1.0" xmlns="http://www.w3.org/2000/svg"
 width="200.000000pt" height="200.000000pt" viewBox="0 0 200.000000 200.000000"
 preserveAspectRatio="xMidYMid meet">
<metadata>
Created by potrace 1.16, written by Peter Selinger 2001-2019
</metadata>
<g transform="translate(0.000000,200.000000) scale(0.100000,-0.100000)"
fill="#000000" stroke="none">
<path d="M0 1000 l0 -1000 1000 0 1000 0 0 1000 0 1000 -1000 0 -1000 0 0
-1000z m1186 646 c280 -89 474 -350 474 -641 0 -70 -21 -191 -38 -222 -9 -15
-10 -15 -20 3 -7 13 -5 40 5 89 57 267 -81 560 -322 687 -109 56 -174 72 -300
72 -172 0 -310 -53 -432 -167 -327 -306 -243 -850 159 -1037 92 -43 171 -60
273 -60 111 0 186 18 287 69 65 32 79 36 89 25 14 -18 18 -14 -62 -58 -186
-102 -436 -102 -632 1 -93 49 -220 173 -270 263 -105 192 -114 425 -24 615 99
207 279 344 505 385 79 15 220 3 308 -24z m-265 -282 c71 -53 129 -99 129
-103 0 -3 -38 -45 -85 -91 -99 -98 -72 -101 -236 26 l-110 86 83 88 c46 49 85
89 87 89 2 1 62 -42 132 -95z m297 -115 c68 -50 121 -93 118 -96 -2 -2 -55
-12 -117 -22 l-114 -18 -43 35 -42 35 35 42 35 43 -30 25 c-37 31 -37 35 -2
40 15 2 29 5 32 5 3 1 60 -39 128 -89z m-487 -91 l119 -93 0 -243 0 -243 -122
93 -123 93 -3 243 c-1 133 0 242 4 242 3 0 59 -42 125 -92z m649 -215 l-1
-188 -35 55 c-22 35 -42 55 -53 55 -11 0 -22 3 -26 7 -10 10 -55 -21 -55 -38
0 -18 15 -18 44 1 24 16 24 15 91 -90 47 -73 71 -103 78 -96 7 7 7 19 -2 37
-17 38 2 54 24 20 14 -21 20 -24 31 -15 12 10 12 15 0 34 -14 22 -12 35 5 35
5 0 19 -15 32 -34 16 -25 27 -32 37 -26 11 7 10 13 -4 35 -15 23 -16 29 -5 36
17 10 17 9 62 -62 27 -42 33 -59 25 -67 -9 -9 -6 -22 10 -51 l23 -40 -90 -61
c-50 -33 -95 -60 -100 -60 -6 0 -15 9 -21 20 -8 14 -17 19 -30 15 -13 -4 -22
1 -30 15 -8 15 -18 20 -31 17 -12 -3 -22 0 -26 9 -4 12 -8 12 -20 2 -13 -10
-19 -8 -35 14 -10 15 -25 25 -32 22 -8 -3 -17 0 -21 6 -5 8 -10 8 -20 0 -10
-8 -15 -8 -21 1 -4 7 3 19 17 30 27 21 39 24 39 8 0 -6 8 -8 19 -4 11 3 22 1
25 -4 4 -6 14 -7 23 -4 10 4 22 -3 34 -18 13 -18 21 -21 29 -13 8 8 -9 44 -65
132 -80 127 -91 140 -105 126 -5 -5 15 -46 45 -94 31 -49 50 -87 44 -91 -6 -3
-27 -5 -47 -3 -20 1 -43 -1 -51 -6 -9 -4 -68 -15 -131 -24 -63 -9 -127 -19
-142 -22 l-28 -6 0 247 c0 187 3 247 13 250 6 3 113 20 237 39 124 18 228 34
233 35 4 0 7 -83 7 -186z"/>
</g>
</svg>
