<?xml version="1.0" encoding="utf-8"?>
<!-- Generator: Adobe Illustrator 21.0.2, SVG Export Plug-In . SVG Version: 6.00 Build 0)  -->
<svg version="1.2" baseProfile="tiny" id="Layer_1" xmlns="http://www.w3.org/2000/svg" xmlns:xlink="http://www.w3.org/1999/xlink"
	 x="0px" y="0px" viewBox="0 0 180 180" overflow="scroll" xml:space="preserve">
<g>
	<path fill="none" stroke="#323337" stroke-width="2" stroke-miterlimit="10" d="M98.4,110.3c0,0.2,0,0.3,0.1,0.5l0.1,0.1
		c0.1,0.1,0.2,0.3,0.3,0.4c0.1,0.1,0.2,0.1,0.4,0.2l0.2,0.1c0.1,0,0.2,0,0.3,0l0.1,0l11.4,0c1.9,0,11.5-0.3,18.2-7
		c7.4-7.4,7-18.5,7-18.6V75c0-0.8-0.6-1.4-1.4-1.4l-10.9,0l-0.5,0c-1.9,0-11.5,0.3-18.2,7c-7.4,7.4-7,18.5-7,18.6V110.3z"/>
	<polygon fill="#323337" points="97.7,111.2 97.7,111.2 97.7,111.2 	"/>
	<path fill="none" stroke="#323337" stroke-width="2" stroke-linecap="round" stroke-miterlimit="10" d="M92.3,136.8l0-55.1
		c0-0.5,0.4-11.3-7-18.7c-6.5-6.5-15.6-7-18.2-7l-11.4,0c-0.8,0-1.4,0.6-1.4,1.4l0,10.9c0,0.5-0.4,11.3,7,18.7
		c6.7,6.7,16.4,7,18.3,7l11.8,0"/>
	<g>
		<path fill="none" stroke="#425199" stroke-width="2" stroke-linecap="round" stroke-miterlimit="10" d="M28.6,110.8
			c-2.1-6.5-3.2-13.4-3.2-20.3c0-36.1,29.4-65.5,65.5-65.5c19.5,0,37.8,8.7,50.2,24c0,0,4.9,6.1,5.5,7.1"/>
		
			<line fill="none" stroke="#425199" stroke-width="2" stroke-linecap="round" stroke-miterlimit="10" x1="148" y1="38.7" x2="148" y2="57.7"/>
		
			<line fill="none" stroke="#425199" stroke-width="2" stroke-linecap="round" stroke-miterlimit="10" x1="128.8" y1="57.9" x2="148" y2="57.9"/>
	</g>
	<g>
		<path fill="none" stroke="#425199" stroke-width="2" stroke-linecap="round" stroke-miterlimit="10" d="M151.4,69.2
			c2.1,6.5,3.2,13.4,3.2,20.3c0,36.1-29.4,65.5-65.5,65.5c-19.5,0-37.8-8.7-50.2-24c0,0-4.9-6.1-5.5-7.1"/>
		
			<line fill="none" stroke="#425199" stroke-width="2" stroke-linecap="round" stroke-miterlimit="10" x1="32" y1="141.3" x2="32" y2="122.3"/>
		
			<line fill="none" stroke="#425199" stroke-width="2" stroke-linecap="round" stroke-miterlimit="10" x1="51.2" y1="122.1" x2="32" y2="122.1"/>
	</g>
	
		<line fill="none" stroke="#323337" stroke-width="2" stroke-linecap="round" stroke-linejoin="round" stroke-miterlimit="10" x1="63.5" y1="65.2" x2="91" y2="92.9"/>
	
		<line fill="none" stroke="#323337" stroke-width="2" stroke-linecap="round" stroke-linejoin="round" stroke-miterlimit="10" x1="127.2" y1="82.9" x2="100" y2="110.2"/>
</g>
</svg>
