<?xml version="1.0" encoding="utf-8"?>
<!-- Generator: Adobe Illustrator 21.0.2, SVG Export Plug-In . SVG Version: 6.00 Build 0)  -->
<svg version="1.2" baseProfile="tiny" id="Layer_1" xmlns="http://www.w3.org/2000/svg" xmlns:xlink="http://www.w3.org/1999/xlink"
	 x="0px" y="0px" viewBox="0 0 180 180" xml:space="preserve">
<g>
	<path fill="none" stroke="#323337" stroke-width="2" stroke-linecap="round" stroke-linejoin="round" stroke-miterlimit="10" d="
		M93.8,111h39.1c0.8,0,1.3-0.5,1.3-1.3v-22c0-0.8-0.5-1.3-1.3-1.3H93.8c-0.8,0-1.3,0.5-1.3,1.3v22C92.4,110.5,92.9,111,93.8,111z"/>
	<path fill="none" stroke="#323337" stroke-width="2" stroke-miterlimit="10" d="M22.9,125.3l0.4,0.1l3.7,0.3l0.6,0h110.1
		c4.8,0,8.6-3.9,8.6-8.6V38.8c0-4.8-3.9-8.6-8.6-8.6H25.4c-4.8,0-8.6,3.9-8.6,8.6V117C16.7,120.8,19.3,124.2,22.9,125.3z"/>
	
		<line fill="none" stroke="#323437" stroke-width="2" stroke-linecap="round" stroke-miterlimit="10" x1="17.5" y1="63" x2="145" y2="63"/>
	
		<line fill="none" stroke="#323437" stroke-width="2" stroke-linecap="round" stroke-miterlimit="10" x1="17.5" y1="43.9" x2="145" y2="43.9"/>
	<path fill="none" stroke="#425199" stroke-width="2" stroke-linecap="round" stroke-miterlimit="10" d="M26,132.1
		c0.5,3.8,4.3,5.1,7.5,5l112.8,12.7l0.9,0c4.3,0,8.2-3.3,8.6-7.3l7.3-78.4c0.2-2.3-0.5-4.6-1.9-6.2l0-0.1c-1.5-2-3.2-2.6-5.8-3.2
		l-2.4-0.6"/>
	
		<line fill="none" stroke="#323437" stroke-width="2" stroke-linecap="round" stroke-miterlimit="10" x1="26.5" y1="77.9" x2="48.7" y2="77.9"/>
	
		<line fill="none" stroke="#323437" stroke-width="2" stroke-linecap="round" stroke-miterlimit="10" x1="55.8" y1="77.9" x2="78" y2="77.9"/>
	
		<line fill="none" stroke="#323437" stroke-width="2" stroke-linecap="round" stroke-miterlimit="10" x1="26.5" y1="87.7" x2="60.9" y2="87.7"/>
	
		<line fill="none" stroke="#323437" stroke-width="2" stroke-linecap="round" stroke-miterlimit="10" x1="68" y1="87.7" x2="78" y2="87.7"/>
</g>
</svg>
