<?xml version="1.0" encoding="utf-8"?>
<!-- Generator: Adobe Illustrator 21.0.2, SVG Export Plug-In . SVG Version: 6.00 Build 0)  -->
<svg version="1.2" baseProfile="tiny" id="Layer_1" xmlns="http://www.w3.org/2000/svg" xmlns:xlink="http://www.w3.org/1999/xlink"
	 x="0px" y="0px" viewBox="0 0 180 180" xml:space="preserve">
<g>
	<g>
		<path fill="none" stroke="#323337" stroke-width="2" stroke-linecap="round" stroke-linejoin="round" stroke-miterlimit="10" d="
			M132.2,66.5V44.7c0-0.7-0.6-1.3-1.3-1.3c-31.8,0-46.3-16.6-46.5-16.8c-0.2-0.3-0.6-0.4-1-0.4c-0.4,0-0.8,0.2-1,0.4
			C82.3,26.8,68.1,43.4,36,43.4c-0.7,0-1.3,0.6-1.3,1.3v41.2c0,22.2,10,43.4,26.7,56.5c6.7,5.3,14,9.1,21.6,11.4
			c0.2,0.1,0.5,0.1,0.7,0c7.6-2.3,14.9-6.1,21.6-11.4c1.1-0.9,2.2-1.8,3.2-2.7"/>
	</g>
	
		<circle fill="none" stroke="#323337" stroke-width="2" stroke-linecap="round" stroke-linejoin="round" stroke-miterlimit="10" cx="112.5" cy="100.7" r="32.8"/>
	<g>
		<g>
			<path fill="none" stroke="#425199" stroke-width="2" stroke-linecap="round" stroke-miterlimit="10" d="M128.9,88.2
				c-1.6-1.6-4.3-1.6-5.9,0l-15.4,15.4l-5.5-5.5c-1.6-1.6-4.3-1.6-5.9,0c-1.6,1.6-1.6,4.3,0,5.9l9.4,9.4c0.5,0.5,1.2,0.8,2,0.8
				c0.7,0,1.4-0.3,2-0.8l19.4-19.4C130.5,92.5,130.5,89.9,128.9,88.2z"/>
		</g>
	</g>
</g>
</svg>
