<?xml version="1.0" encoding="utf-8"?>
<!-- Generator: Adobe Illustrator 21.0.2, SVG Export Plug-In . SVG Version: 6.00 Build 0)  -->
<svg version="1.2" baseProfile="tiny" id="Layer_1" xmlns="http://www.w3.org/2000/svg" xmlns:xlink="http://www.w3.org/1999/xlink"
	 x="0px" y="0px" viewBox="0 0 180 180" xml:space="preserve">
<g>
	<g>
		<path fill="none" stroke="#303236" stroke-width="2" stroke-linecap="round" stroke-miterlimit="10" d="M36,99.4
			c-2.2,4-2.1,9.6-2.1,12c-0.1,1.1,0,5.9,1.2,9.8c0.8,3.2,1.9,6.3,3.5,9.4c2.5,5.5,5.5,10,8.9,13.5c5.3,5.5,6.2,12.4,6.3,15.1l0,1.6
			c0.2,2.3,2.1,4.1,4.3,4.1h17.9c2.4,0,4.3-1.9,4.3-4.3v-2.8l1.8,0.1c2.5,0.2,5.1,0.2,7.9,0.1l1.7-0.1v2.6c0,2.4,1.9,4.3,4.3,4.3
			h17.9c2.4,0,4.3-1.9,4.3-4.3v-4.4c0.2-2.6,1.1-7.3,5.6-11.3l0.8-0.7c0.5-0.6,9.4-10.9,12.8-18.6l0.4-1h2.7c3.8,0,6.8-3.1,6.8-6.8
			v-13.4c0-3.8-3.1-6.8-6.8-6.8h-3l-0.4-1.1c-2.7-7-7.4-13.5-13.5-18.7l-0.4-0.3l-0.1-0.5c-1.1-3.8-0.3-7.8,2.3-11.9
			c1-1.5,1-3.4,0-5c-1-1.5-2.7-2.4-4.5-2.1c-7,0.9-12.5,3.7-16.4,8.4l-0.7,0.8l0,0c-3.6-1.9-10.5-3.5-15.7-1.5"/>
		<path fill="#303236" d="M37.8,120.6"/>
	</g>
	<path fill="none" stroke="#425199" stroke-width="2" stroke-miterlimit="10" d="M57.7,99.4c13.9,0,25.2-11.3,25.2-25.2
		C82.9,60.3,71.6,49,57.7,49c-13.9,0-25.2,11.3-25.2,25.2C32.4,88.1,43.7,99.4,57.7,99.4z"/>
	<path fill="none" stroke="#425199" stroke-width="2" stroke-miterlimit="10" d="M86.5,50.2c9.7,0,17.6-7.9,17.6-17.6
		c0-9.7-7.9-17.6-17.6-17.6s-17.6,7.9-17.6,17.6C68.9,42.3,76.8,50.2,86.5,50.2z"/>
</g>
</svg>
