<?xml version="1.0" encoding="utf-8"?>
<!-- Generator: Adobe Illustrator 21.0.2, SVG Export Plug-In . SVG Version: 6.00 Build 0)  -->
<svg version="1.2" baseProfile="tiny" id="Layer_1" xmlns="http://www.w3.org/2000/svg" xmlns:xlink="http://www.w3.org/1999/xlink"
	 x="0px" y="0px" viewBox="0 0 180 180" overflow="scroll" xml:space="preserve">
<g>
	<polygon fill="none" points="81.2,86.9 81.2,86.9 81.2,86.9 	"/>
	<polygon fill="none" points="84,93.9 84,93.9 84,93.9 	"/>
	<path fill="none" stroke="#323337" stroke-width="2" stroke-miterlimit="10" d="M87.7,98.1c0.6,0.9,1,1.6,1.4,2.1l0.6,0.8l0.1,0.4
		v7.8c0,2.7-1.5,5.1-3.8,6.4l-21.1,11.5c-6.5,3.6-10.6,10.4-10.6,17.8v4.2v4.7h106.9v-8.5c0-7.7-4.3-14.7-11.2-18.2l-22.6-11.3
		c-2.5-1.2-4-3.8-4-6.5v-8.4l0.2-0.3c0.5-0.6,1.1-1.4,1.7-2.2c2.9-4.1,5.2-8.6,6.9-13.5l0.1-0.4l0.4-0.2c3-1.4,4.9-4.3,4.9-7.6v-9.5
		c0-2-0.7-4-2.1-5.5l-0.3-0.3v-13c0.1-1.5,0.6-8.7-4.7-14.8c-4.7-5.3-12.3-8-22.7-8c-10.4,0-18,2.7-22.7,8
		c-3.3,3.7-4.3,7.9-4.6,10.8l-0.2,1.4l0.1,15.5L80.1,62c-1.4,1.5-2.1,3.5-2.1,5.5V77c0,0.6,0.1,1.3,0.2,1.9c0,0.1,0.1,0.2,0.1,0.3
		c0,0.1,0.1,0.2,0.1,0.4l0.1,0.3c0.1,0.2,0.1,0.5,0.3,0.7c0.5,1.1,1.3,2.1,2.3,2.9l0.3,0.2l0.1,0.3c0.2,0.7,0.4,1.5,0.6,2.1
		c0,0,0.3,1,0.3,1.2C82.6,88.2,85.9,95.8,87.7,98.1z"/>
	<polygon fill="#323337" points="87.4,89.8 87.4,89.8 87.4,89.8 	"/>
	<path fill="none" stroke="#425199" stroke-width="2" stroke-linecap="round" stroke-miterlimit="10" d="M73.7,45.2
		c-3.8-1.8-6.9-2.7-10.8-2.7c-23.7,0-25,20.1-25,20.3l0,11.2l-0.3,0.3c-1.4,1.5-2.1,3.2-2.1,4.8v8.2c0,2.2,1,4.3,2.7,5.7l0.3,0.2
		l0.1,0.3c1.9,7.1,6.5,12.5,8.4,14.4l0.3,0.3v6.9c0,2.3-1.2,4.3-3.3,5.5l-15.7,9.9c-5.8,3.1-9.3,9.1-9.3,15.6v7.9h28.8"/>
</g>
</svg>
