<?xml version="1.0" encoding="utf-8"?>
<!-- Generator: Adobe Illustrator 21.0.2, SVG Export Plug-In . SVG Version: 6.00 Build 0)  -->
<svg version="1.2" baseProfile="tiny" id="Layer_1" xmlns="http://www.w3.org/2000/svg" xmlns:xlink="http://www.w3.org/1999/xlink"
	 x="0px" y="0px" viewBox="0 0 180 180" xml:space="preserve">
<g>
	<path fill="none" stroke="#323337" stroke-width="2" stroke-linecap="round" stroke-miterlimit="10" d="M76.4,160.8
		c4.7,1.1,9.6,1.7,14.6,1.7c35.7,0,64.6-28.9,64.6-64.6S126.7,33.2,91,33.2c-5.1,0-10.3-0.4-14.7,1.7"/>
	<g>
		<path fill="none" stroke="#323337" stroke-width="2" stroke-miterlimit="10" d="M98,106.2l21.2-29.3c0.4-0.6,0.4-1.4-0.2-1.9
			c-0.3-0.3-0.7-0.4-1.1-0.4c-0.3,0-0.6,0.1-0.9,0.3L87.8,96c-1.7,1.3-2.8,3.2-3,5.3c-0.2,2.1,0.6,4.2,2.1,5.7
			c1.5,1.5,3.6,2.3,5.7,2.1C94.8,109,96.7,107.9,98,106.2z"/>
		<path fill="none" stroke="#323337" stroke-width="2" stroke-miterlimit="10" d="M95.6,33.6V27h6.7c2.9,0,5.2-1.8,5.2-4.7
			c0-2.9-2.4-4.7-5.3-4.7H80.4c-2.9,0-5.3,1.8-5.3,4.7c0,2.9,2.4,4.7,5.3,4.7h6.7v6.2 M144.3,45.9l3.4,3.4l9.1-9.1l-9.1-9.1
			l-9.1,9.1l3.4,3.4L144.3,45.9z M155.8,97 M147.1,129.4"/>
		
			<line fill="none" stroke="#425199" stroke-width="2" stroke-linecap="round" stroke-miterlimit="10" x1="69.4" y1="52.8" x2="57.2" y2="52.8"/>
		
			<line fill="none" stroke="#425199" stroke-width="2" stroke-linecap="round" stroke-miterlimit="10" x1="69.4" y1="69.8" x2="45" y2="69.8"/>
		
			<line fill="none" stroke="#425199" stroke-width="2" stroke-linecap="round" stroke-miterlimit="10" x1="69.4" y1="86.8" x2="32.9" y2="86.8"/>
		
			<line fill="none" stroke="#425199" stroke-width="2" stroke-linecap="round" stroke-miterlimit="10" x1="69.4" y1="103.9" x2="23.1" y2="103.9"/>
		
			<line fill="none" stroke="#425199" stroke-width="2" stroke-linecap="round" stroke-miterlimit="10" x1="69.4" y1="120.9" x2="37.7" y2="120.9"/>
		
			<line fill="none" stroke="#425199" stroke-width="2" stroke-linecap="round" stroke-miterlimit="10" x1="69.4" y1="137.9" x2="52.3" y2="137.9"/>
	</g>
	
		<line fill="none" stroke="#323337" stroke-width="2" stroke-linecap="round" stroke-miterlimit="10" x1="139.7" y1="69.7" x2="146" y2="66"/>
	
		<line fill="none" stroke="#323337" stroke-width="2" stroke-linecap="round" stroke-miterlimit="10" x1="147" y1="97.9" x2="154.3" y2="97.9"/>
	
		<line fill="none" stroke="#323337" stroke-width="2" stroke-linecap="round" stroke-miterlimit="10" x1="139.5" y1="126" x2="145.9" y2="129.6"/>
	
		<line fill="none" stroke="#323337" stroke-width="2" stroke-linecap="round" stroke-miterlimit="10" x1="119" y1="146.7" x2="122.5" y2="152.9"/>
	
		<line fill="none" stroke="#323337" stroke-width="2" stroke-linecap="round" stroke-miterlimit="10" x1="91.2" y1="154.1" x2="91.2" y2="161.5"/>
	
		<line fill="none" stroke="#323337" stroke-width="2" stroke-linecap="round" stroke-miterlimit="10" x1="119.1" y1="49" x2="122.7" y2="42.6"/>
	
		<line fill="none" stroke="#323337" stroke-width="2" stroke-linecap="round" stroke-miterlimit="10" x1="91.2" y1="41.7" x2="91.2" y2="34.4"/>
	<line fill="none" stroke="#323337" stroke-width="2" stroke-miterlimit="10" x1="143.1" y1="44.5" x2="136.8" y2="51.1"/>
</g>
</svg>
