<?xml version="1.0" encoding="utf-8"?>
<!-- Generator: Adobe Illustrator 21.0.2, SVG Export Plug-In . SVG Version: 6.00 Build 0)  -->
<svg version="1.2" baseProfile="tiny" id="Layer_1" xmlns="http://www.w3.org/2000/svg" xmlns:xlink="http://www.w3.org/1999/xlink"
	 x="0px" y="0px" viewBox="0 0 180 180" xml:space="preserve">
<g>
	<g>
		<path fill="none" stroke="#425199" stroke-width="2" stroke-linecap="round" stroke-miterlimit="10" d="M54.1,80.3
			c8.2,2.8,15.2,2.6,21.2-0.6c6.3-3.4,9.6-9.5,11-12.8l0.7-1.6l15.7,5.4c4.6,1.6,8.4,1.4,11.2-0.6c4.4-3,4.9-9,4.9-10.2
			c0-0.6-0.4-1.2-1-1.4L77.1,44.4c-3.8-1.3-7.9-1-11.5,0.7l-2,1c-2.9,1.4-6.4,1.6-9.4,0.6l-4-1.5l-20.9-7.3
			c-0.2-0.1-0.3-0.1-0.5-0.1c-0.6,0-1.1,0.4-1.3,1L10,90.1c-0.1,0.3-0.1,0.7,0.1,1.1c0.1,0.2,0.3,0.5,0.8,0.6l21,7.2"/>
		<path fill="none" stroke="#303236" stroke-width="2" stroke-linecap="round" stroke-linejoin="round" stroke-miterlimit="10" d="
			M60.8,90.7l-14.5,7.1c-1.9,0.9-3.3,2.5-4,4.5c-0.7,2-0.5,4.1,0.4,6c0.5,1.1,1.2,2,2.2,2.7l1.4,1.1l-1.1,1.5
			c-1.7,2.2-1.9,5.3-0.7,7.9c1.3,2.6,3.9,4.2,6.8,4.4l1.8,0.1v1.8c0,1.2,0.3,2.4,0.8,3.4c0.9,1.9,2.5,3.3,4.5,3.9
			c1.9,0.7,4.1,0.6,5.9-0.4l4.1-2.1l0.4,2.7c0.1,0.8,0.4,1.7,0.7,2.4c0.9,1.9,2.5,3.3,4.5,3.9c1.9,0.7,4.1,0.6,5.9-0.4l38.1-18.7
			c8.3-4.1,16-9.3,22.8-15.6l9-8.1l19.5-9.5c0.7-0.3,1-1.2,0.6-1.9l0,0L146.2,39c-0.1-0.2-0.4-0.6-0.8-0.7c-0.5-0.2-0.9-0.1-1.1,0.1
			l-19.9,9.7c-0.3,0.2-0.6,0.4-0.7,0.8"/>
	</g>
	
		<line fill="none" stroke="#303236" stroke-width="2" stroke-linecap="round" stroke-linejoin="round" stroke-miterlimit="10" x1="46.3" y1="112.1" x2="79.6" y2="95.6"/>
	
		<line fill="none" stroke="#303236" stroke-width="2" stroke-linecap="round" stroke-linejoin="round" stroke-miterlimit="10" x1="68.5" y1="132.7" x2="96" y2="119"/>
	
		<line fill="none" stroke="#303236" stroke-width="2" stroke-linecap="round" stroke-linejoin="round" stroke-miterlimit="10" x1="53.2" y1="125.9" x2="89.7" y2="107.9"/>
	
		<line fill="none" stroke="#303236" stroke-width="2" stroke-linecap="round" stroke-linejoin="round" stroke-miterlimit="10" x1="123.8" y1="48.9" x2="149.3" y2="99.1"/>
	
		<line fill="none" stroke="#425199" stroke-width="2" stroke-linecap="round" stroke-linejoin="round" stroke-miterlimit="10" x1="31.8" y1="99" x2="50.2" y2="45.2"/>
</g>
</svg>
