<?xml version="1.0" encoding="utf-8"?>
<!-- Generator: Adobe Illustrator 21.0.2, SVG Export Plug-In . SVG Version: 6.00 Build 0)  -->
<svg version="1.2" baseProfile="tiny" id="Layer_1" xmlns="http://www.w3.org/2000/svg" xmlns:xlink="http://www.w3.org/1999/xlink"
	 x="0px" y="0px" viewBox="0 0 180 180" xml:space="preserve">
<g>
	<g>
		<circle fill="#323337" cx="46.6" cy="130.7" r="4.4"/>
		<circle fill="#323337" cx="145.8" cy="130.7" r="4.4"/>
	</g>
	<path fill="none" stroke="#323337" stroke-width="2" stroke-linecap="round" stroke-linejoin="round" stroke-miterlimit="10" d="
		M22.1,84.9l-1.6,8.3l-6.9,37.5c-0.2,0.5-0.2,0.5,0.1,0.9c0.1,0.2,0.4,0.4,0.9,0.4h16.2l0.2,1.4c1.3,7.5,8,13.2,15.6,13.2
		c7.6,0,14.3-5.7,15.6-13.2l0.2-1.4H130l0.2,1.4c1.3,7.5,8,13.2,15.6,13.2s14.3-5.7,15.6-13.2l0.2-1.4h13.3c2.3,0,4.2-1.9,4.2-4.2
		V104c0-1.9-1-3.3-2.7-4l-12.2-5l-7.5-29.9c-0.7-3.3-3.4-5.4-6.8-5.4h-17.6l0.7-2.2c4-12.3,5.3-22.6,5.3-22.6c0-0.2-0.1-0.5-0.3-1.1
		l0-0.1c-0.2-0.1-0.6-0.2-0.9-0.2H32c-0.4,0-1,0.1-1,0.7l0,0.3l-0.1,0.6l-1.1,6.3 M24.1,73.3l-0.7,4 M26.3,61l-0.8,4.4 M28.4,49.3
		l-0.7,4.1 M46.6,146.5c-8.7,0-15.8-7.1-15.8-15.8s7.1-15.8,15.8-15.8s15.8,7.1,15.8,15.8S55.3,146.5,46.6,146.5z M145.8,146.5
		c-8.7,0-15.8-7.1-15.8-15.8s7.1-15.8,15.8-15.8c8.7,0,15.8,7.1,15.8,15.8S154.5,146.5,145.8,146.5z"/>
	<path fill="none" stroke="#323337" stroke-width="2" stroke-miterlimit="10" d="M21.6,92.6c0,0,73.8,0,77.2,0c6,0,19-1.2,25.9-15.9
		c0,0,6.5-12.6,8.2-18.6"/>
	<path fill="none" stroke="#323337" stroke-width="2" stroke-linecap="round" stroke-miterlimit="10" d="M139.9,75.4
		c0,0,0,11.3,0,12.8c0,1.5,1.2,7.5,6,7.6c4.7,0.1,20.4,0,20.4,0"/>
	
		<line fill="none" stroke="#425199" stroke-width="2" stroke-linecap="round" stroke-miterlimit="10" x1="56.8" y1="45.4" x2="6.9" y2="45.4"/>
	
		<line fill="none" stroke="#425199" stroke-width="2" stroke-linecap="round" stroke-miterlimit="10" x1="54.4" y1="57.1" x2="4.6" y2="57.1"/>
	
		<line fill="none" stroke="#425199" stroke-width="2" stroke-linecap="round" stroke-miterlimit="10" x1="52.5" y1="69.1" x2="2.6" y2="69.1"/>
	
		<line fill="none" stroke="#425199" stroke-width="2" stroke-linecap="round" stroke-miterlimit="10" x1="50.9" y1="81.1" x2="1" y2="81.1"/>
	<line fill="#FFFFFF" x1="21.7" y1="67.8" x2="36.7" y2="67.8"/>
	<line fill="#FFFFFF" x1="19.5" y1="79.7" x2="34.4" y2="79.7"/>
	<line fill="#FFFFFF" x1="19.5" y1="70.5" x2="34.5" y2="70.5"/>
	<line fill="#FFFFFF" x1="19.5" y1="58.4" x2="34.5" y2="58.4"/>
	<line fill="#FFFFFF" x1="19.5" y1="82.4" x2="34.4" y2="82.4"/>
</g>
</svg>
